<svg width="679" height="139" viewBox="0 0 679 139" fill="none" xmlns="http://www.w3.org/2000/svg">
<path d="M88.3339 105.895C80.7246 113.512 70.7194 117.314 60.7225 117.314C50.725 117.314 40.7261 113.505 33.1089 105.887C25.4927 98.2693 21.6834 88.2786 21.6834 78.2802C21.6834 68.2818 25.4927 58.2829 33.1089 50.6657V50.6578C40.7194 43.0474 50.725 39.2391 60.7225 39.2468C70.7194 39.2552 80.7246 43.0553 88.3339 50.6657C103.553 65.8938 103.56 90.6734 88.3339 105.895V105.895ZM103.669 35.3307C91.8261 23.4791 76.2725 17.5619 60.7198 17.5619C45.3225 17.5619 29.925 23.3552 18.1355 34.9562L17.7703 35.3307L17.5834 35.5083L17.397 35.6963C11.5798 41.6135 7.22507 48.4261 4.32351 55.6979C-4.4015 77.5719 0.0781921 103.538 17.7703 121.23C29.6053 133.066 45.1662 138.992 60.7198 139C76.2807 138.992 91.8339 133.066 103.669 121.23C127.356 97.5427 127.356 59.0099 103.669 35.3307Z" fill="#1A2D67"/>
<path d="M229.782 20.4526H206.738C204.688 20.4526 202.736 21.3219 201.366 22.8433L99.3804 136.108H122.426C124.475 136.108 126.427 135.239 127.798 133.716L214.024 37.9526V78.2802H228.482C232.474 78.2802 235.71 75.0438 235.71 71.0521V20.4526H229.782Z" fill="#1A2D67"/>
<path d="M347.764 20.4526H325.694C323.646 20.4526 321.692 21.3219 320.32 22.8433L271.851 76.675V20.4526H257.354C253.384 20.4526 250.167 23.6433 250.167 27.5791V136.108H271.851V79.8854L320.32 133.716C321.692 135.239 323.646 136.108 325.694 136.108H347.764L295.696 78.2802L347.764 20.4526Z" fill="#1A2D67"/>
<path d="M185.366 90.4895C212.446 99.9829 223.403 110.942 232.896 138.023C233.438 139.563 235.708 139.184 235.708 137.553V94.9058C235.708 90.9135 232.472 87.6777 228.482 87.6777H185.834C184.202 87.6777 183.826 89.9495 185.366 90.4895" fill="#1A2D67"/>
<path d="M420.076 70.7521C420.076 71.5005 419.496 71.8922 418.924 71.8922C418.426 71.8922 418.028 71.6042 417.859 71.1214C408.364 44.0433 397.215 32.8938 370.139 23.4021C369.463 23.1646 369.31 22.5662 369.386 22.1261C369.459 21.6911 369.798 21.1829 370.506 21.1829H413.154C416.971 21.1829 420.076 24.2886 420.076 28.1062V70.7521ZM397.636 0.251521C373.683 0.251521 354.266 19.6687 354.266 43.6219C354.266 67.575 373.683 86.9933 397.636 86.9933C421.59 86.9933 441.007 67.575 441.007 43.6219C441.007 19.6687 421.59 0.251521 397.636 0.251521Z" fill="#3555AE"/>
<path d="M472.703 91.1099V120.417L494.491 91.1099H502.46V136.099H493.27V106.6L471.226 136.099H463.45V91.1099H472.703Z" fill="#1A2D67"/>
<path d="M536.076 108.946C537.34 107.979 537.974 106.6 537.974 104.8C537.974 102.957 537.34 101.566 536.076 100.623C534.814 99.6802 533.088 99.2083 530.903 99.2083H521.134V110.391H530.903C533.088 110.391 534.814 109.91 536.076 108.946V108.946ZM531.547 91.1099C533.988 91.1099 536.184 91.4406 538.134 92.1042C540.083 92.7714 541.732 93.7005 543.083 94.9021C544.432 96.1021 545.46 97.5365 546.167 99.2083C546.875 100.878 547.227 102.7 547.227 104.67C547.227 106.641 546.875 108.462 546.167 110.134C545.46 111.806 544.432 113.241 543.083 114.441C541.732 115.639 540.083 116.582 538.134 117.268C536.184 117.954 533.988 118.295 531.547 118.295H521.134V136.099H511.88V91.1099H531.547Z" fill="#1A2D67"/>
<path d="M562.547 91.1099V108.85L579.13 91.1099H590.439L571.352 111.741L593.718 136.099H581.894L562.547 115.34V136.099H553.292V91.1099H562.547Z" fill="#1A2D67"/>
<path d="M602.063 136.709C600.714 136.516 599.675 136.185 598.947 135.715V127.551C599.804 128.021 600.714 128.345 601.678 128.516C602.643 128.685 603.467 128.771 604.152 128.771C605.052 128.771 605.867 128.685 606.595 128.516C607.323 128.345 607.987 128.021 608.587 127.551C609.187 127.078 609.778 126.439 610.356 125.623C610.932 124.807 611.522 123.78 612.122 122.537L595.092 91.1105H605.311L616.687 113.219L626.646 91.1105H636.479L619.899 126.329C618.871 128.558 617.746 130.368 616.526 131.761C615.303 133.154 614.06 134.235 612.796 135.006C611.534 135.777 610.302 136.302 609.1 136.581C607.902 136.86 606.787 136.998 605.759 136.998C604.647 136.998 603.414 136.903 602.063 136.709" fill="#1A2D67"/>
<path d="M678.132 99.4015H663.864V136.099H654.608V99.4015H640.406V91.1094H678.132V99.4015" fill="#1A2D67"/>
</svg>
