<svg width="139" height="31" viewBox="0 0 139 31" fill="none" xmlns="http://www.w3.org/2000/svg">
<path d="M59.8146 17.6926C59.6319 15.3823 57.927 14.3792 54.5779 13.7712C52.2031 13.3457 51.5942 12.6769 51.5942 11.8865C51.5942 11.3394 51.9595 10.3362 53.9081 10.3362C55.065 10.3362 56.2524 10.9746 56.5873 11.9777L59.193 10.3204C58.8902 9.81578 57.6834 7.50915 53.9081 7.50915C49.8588 7.50915 48.306 10.4274 48.7018 12.7377C49.0672 14.9568 50.8026 15.8383 53.6341 16.4159C55.9175 16.8719 56.8005 17.2975 56.8918 17.9966C57.0136 18.8174 56.2524 19.7597 54.3039 19.7597C52.3249 19.7597 51.3531 18.9025 51.0182 17.9905L48.7019 19.4035C49.4035 21.1191 51.0766 22.6476 54.4257 22.6476C57.7747 22.6476 60.0582 20.5501 59.8146 17.6926Z" fill="white"/>
<path d="M73.9195 7.72193H70.814L67.2822 17.8446L63.72 7.72193H60.6145L65.1492 20.3074C65.5253 21.3514 65.5646 22.4993 65.1843 23.5417C64.5851 25.1842 64.1559 25.5598 62.7253 25.5598L61.467 28.3929C65.699 29.2745 67.2213 26.1738 68.8654 21.8268L73.9195 7.72193Z" fill="white"/>
<path d="M94.2133 19.5044C93.7086 19.8072 93.5593 19.8813 92.9504 19.6381C92.311 19.3949 92.037 18.8478 92.037 17.5406V10.3362H95.0511V7.72193H92.037V3.86133L89.1446 5.57702V7.72193H87.1656V10.3362H89.1446V17.6622C89.1446 20.3373 89.9667 21.8268 91.7934 22.4044C93.2853 22.8604 95.3234 22.5321 96.6354 21.1191L94.2133 19.5044Z" fill="white"/>
<path d="M110.327 16.3052C110.418 15.8189 110.449 15.3325 110.449 14.8461C110.449 10.7119 108.165 7.50915 103.903 7.50915C99.6404 7.50915 96.8394 10.9138 96.8394 15.048C96.8394 19.1822 99.7317 22.5868 103.994 22.5868C106.704 22.5868 108.669 21.4706 109.856 19.4035L107.343 17.875C106.673 18.9694 105.547 19.6989 103.994 19.6989C101.863 19.6989 100.523 18.1292 100.097 16.3052H110.327ZM103.903 10.397C106.095 10.397 107.161 11.8561 107.465 13.7712H100.036C100.432 11.8561 101.711 10.397 103.903 10.397Z" fill="white"/>
<path d="M128.224 7.50915C126.276 7.50915 124.753 8.3907 123.749 9.91062C122.805 8.3299 121.252 7.50915 119.212 7.50915C117.781 7.50915 116.655 8.02592 115.772 8.87707V7.1164L112.879 8.80655V22.374H115.772V14.1968C115.772 11.4609 116.959 10.397 118.756 10.397C120.46 10.397 121.831 11.5217 121.831 14.3792V22.374H124.723V14.1968C124.723 11.4609 126.002 10.397 127.798 10.397C129.473 10.397 130.751 11.5217 130.751 14.3792V22.374H133.674V14.1056C133.674 9.88023 131.695 7.50915 128.224 7.50915Z" fill="white"/>
<path d="M85.9076 17.6776C85.725 15.3673 84.02 14.3642 80.6709 13.7562C78.2961 13.3306 77.6872 12.6619 77.6872 11.8715C77.6872 11.3243 78.0526 10.3212 80.0011 10.3212C81.1581 10.3212 82.3455 10.9596 82.6804 11.9627L85.2861 10.4063C84.9833 9.9017 83.7764 7.49414 80.0011 7.49414C75.9518 7.49414 74.399 10.4124 74.7948 12.7227C75.1602 14.9418 76.8956 15.8233 79.7271 16.4009C82.0106 16.8569 82.8935 17.2824 82.9848 17.9816C83.1066 18.8024 82.3455 19.7447 80.3969 19.7447C78.4179 19.7447 77.4437 18.8328 77.1087 17.9208L74.7949 19.3885C75.4966 21.1041 77.1696 22.6326 80.5187 22.6326C83.8678 22.6326 86.1512 20.5351 85.9076 17.6776Z" fill="white"/>
<path d="M13.1716 22.338H16.0405V21.6153V8.54415V7.0918L13.1716 8.80749V22.338Z" fill="white"/>
<path d="M40.2261 7.6702C38.3537 7.6702 36.8438 8.3301 35.7868 9.43994V7.88017H32.8877V28.0697L35.9076 26.2059L35.7868 20.7783C36.8438 21.8881 38.3537 22.548 40.2261 22.548C44.4539 22.548 46.9907 19.1885 46.9907 15.1091C46.9907 11.0297 44.4539 7.6702 40.2261 7.6702ZM39.8939 19.6984C37.2364 19.6984 35.9076 17.5987 35.9076 15.1091C35.9076 12.6195 37.2666 10.5198 39.8939 10.5198C42.491 10.5198 43.85 12.6195 43.85 15.1091C43.85 17.5987 42.5212 19.6984 39.8939 19.6984Z" fill="white"/>
<circle cx="9.74063" cy="8.70596" r="2.01846" fill="#F7D20F"/>
<path d="M30.1095 17.6776C29.9283 15.3673 28.2368 14.3642 24.9144 13.7562C22.5584 13.3306 21.9543 12.6619 21.9543 11.8715C21.9543 11.3243 22.3168 10.3212 24.2499 10.3212C25.3976 10.3212 26.5756 10.9596 26.9078 11.9627L29.4929 10.4063C29.1925 9.9017 27.9952 7.49414 24.2499 7.49414C20.2327 7.49414 18.6922 10.4124 19.0849 12.7227C19.4473 14.9418 21.169 15.8233 23.978 16.4009C26.2434 16.8569 27.1193 17.2825 27.2099 17.9816C27.3307 18.8024 26.5756 19.7447 24.6425 19.7447C22.6792 19.7447 21.78 18.8936 21.4478 17.9816L19.085 19.3885C19.781 21.1041 21.4408 22.6326 24.7633 22.6326C28.0858 22.6326 30.3512 20.5351 30.1095 17.6776Z" fill="white"/>
</svg>
